0
SECTION
2
HEADER
9
$INSUNITS
70
4
9
$ACADVER
1
AC1014
9
$HANDSEED
5
FFFF
0
ENDSEC
0
SECTION
2
TABLES
0
TABLE
2
VPORT
5
8
100
AcDbSymbolTable
0
ENDTAB
0
TABLE
2
LTYPE
5
5
100
AcDbSymbolTable
0
LTYPE
5
14
100
AcDbSymbolTableRecord
100
AcDbLinetypeTableRecord
2
BYBLOCK
70
0
0
LTYPE
5
15
100
AcDbSymbolTableRecord
100
AcDbLinetypeTableRecord
2
BYLAYER
70
0
0
LTYPE
5
16
100
AcDbSymbolTableRecord
100
AcDbLinetypeTableRecord
2
DASHED
70
0
3
Dashed __ __ __ __ __ __ __ __ __ __ __ __ __ _
72
65
73
2
40
0.75
49
0.5
74
0
49
-0.25
74
0
0
ENDTAB
0
TABLE
2
LAYER
5
2
100
AcDbSymbolTable
70
3
0
LAYER
5
50
100
AcDbSymbolTableRecord
100
AcDbLayerTableRecord
2
1
70
0
62
7
6
DASHED
0
LAYER
5
51
100
AcDbSymbolTableRecord
100
AcDbLayerTableRecord
2
0
70
0
62
7
6
CONTINUOUS
0
ENDTAB
0
TABLE
2
STYLE
5
3
100
AcDbSymbolTable
70
1
0
STYLE
5
11
100
AcDbSymbolTableRecord
100
AcDbTextStyleTableRecord
2
STANDARD
70
0
0
ENDTAB
0
TABLE
2
VIEW
5
6
100
AcDbSymbolTable
70
0
0
ENDTAB
0
TABLE
2
UCS
5
7
100
AcDbSymbolTable
70
0
0
ENDTAB
0
TABLE
2
APPID
5
9
100
AcDbSymbolTable
70
2
0
APPID
5
12
100
AcDbSymbolTableRecord
100
AcDbRegAppTableRecord
2
ACAD
70
0
0
ENDTAB
0
TABLE
2
DIMSTYLE
5
A
100
AcDbSymbolTable
70
1
0
ENDTAB
0
TABLE
2
BLOCK_RECORD
5
1
100
AcDbSymbolTable
70
1
0
BLOCK_RECORD
5
1F
100
AcDbSymbolTableRecord
100
AcDbBlockTableRecord
2
*MODEL_SPACE
0
BLOCK_RECORD
5
1B
100
AcDbSymbolTableRecord
100
AcDbBlockTableRecord
2
*PAPER_SPACE
0
ENDTAB
0
ENDSEC
0
SECTION
2
BLOCKS
0
BLOCK
5
20
100
AcDbEntity
100
AcDbBlockBegin
2
*MODEL_SPACE
0
ENDBLK
5
21
100
AcDbEntity
100
AcDbBlockEnd
0
BLOCK
5
1C
100
AcDbEntity
100
AcDbBlockBegin
2
*PAPER_SPACE
0
ENDBLK
5
1D
100
AcDbEntity
100
AcDbBlockEnd
0
ENDSEC
0
SECTION
2
ENTITIES
0
POINT
5
100
100
AcDbEntity
8
0
100
AcDbPoint
10
7.0000001043081284
20
11.000000163912773
30
0
0
POINT
5
101
100
AcDbEntity
8
0
100
AcDbPoint
10
23.000000104308128
20
11.000000163912773
30
0
0
POINT
5
102
100
AcDbEntity
8
0
100
AcDbPoint
10
7.0000001043081284
20
-3.9999998360872269
30
0
0
POINT
5
103
100
AcDbEntity
8
0
100
AcDbPoint
10
25.00000037252903
20
-3.9999998360872269
30
0
0
POINT
5
104
100
AcDbEntity
8
0
100
AcDbPoint
10
41.000000610947609
20
11.000000163912773
30
0
0
POINT
5
105
100
AcDbEntity
8
0
100
AcDbPoint
10
43.000000610947609
20
11.000000163912773
30
0
0
POINT
5
106
100
AcDbEntity
8
0
100
AcDbPoint
10
59.000000610947616
20
11.000000163912773
30
0
0
POINT
5
107
100
AcDbEntity
8
0
100
AcDbPoint
10
43.000000610947609
20
-3.9999998360872269
30
0
0
POINT
5
108
100
AcDbEntity
8
0
100
AcDbPoint
10
7.0000001043081284
20
-5.9999998360872269
30
0
0
POINT
5
109
100
AcDbEntity
8
0
100
AcDbPoint
10
23.000000104308128
20
-5.9999998360872269
30
0
0
POINT
5
110
100
AcDbEntity
8
0
100
AcDbPoint
10
7.0000001043081284
20
-20.999999836087227
30
0
0
POINT
5
111
100
AcDbEntity
8
0
100
AcDbPoint
10
7.0000001043081284
20
-22.99999983608723
30
0
0
POINT
5
112
100
AcDbEntity
8
0
100
AcDbPoint
10
23.000000104308128
20
-22.99999983608723
30
0
0
POINT
5
113
100
AcDbEntity
8
0
100
AcDbPoint
10
7.0000001043081284
20
-37.999999836087227
30
0
0
POINT
5
114
100
AcDbEntity
8
0
100
AcDbPoint
10
7.0000001043081284
20
-39.999999836087234
30
0
0
POINT
5
115
100
AcDbEntity
8
0
100
AcDbPoint
10
23.000000104308128
20
-39.999999836087234
30
0
0
POINT
5
116
100
AcDbEntity
8
0
100
AcDbPoint
10
7.0000001043081284
20
-54.999999836087234
30
0
0
POINT
5
117
100
AcDbEntity
8
0
100
AcDbPoint
10
25.00000037252903
20
-5.9999998360872269
30
0
0
POINT
5
118
100
AcDbEntity
8
0
100
AcDbPoint
10
41.00000037252903
20
-5.9999998360872269
30
0
0
POINT
5
119
100
AcDbEntity
8
0
100
AcDbPoint
10
25.00000037252903
20
-20.999999836087227
30
0
0
POINT
5
120
100
AcDbEntity
8
0
100
AcDbPoint
10
25.00000037252903
20
-22.99999983608723
30
0
0
POINT
5
121
100
AcDbEntity
8
0
100
AcDbPoint
10
41.00000037252903
20
-22.99999983608723
30
0
0
POINT
5
122
100
AcDbEntity
8
0
100
AcDbPoint
10
25.00000037252903
20
-37.999999836087227
30
0
0
POINT
5
123
100
AcDbEntity
8
0
100
AcDbPoint
10
25.00000037252903
20
-39.999999836087234
30
0
0
POINT
5
124
100
AcDbEntity
8
0
100
AcDbPoint
10
41.00000037252903
20
-39.999999836087234
30
0
0
POINT
5
125
100
AcDbEntity
8
0
100
AcDbPoint
10
25.00000037252903
20
-54.999999836087234
30
0
0
POINT
5
126
100
AcDbEntity
8
0
100
AcDbPoint
10
43.000000610947609
20
-5.9999998360872269
30
0
0
POINT
5
127
100
AcDbEntity
8
0
100
AcDbPoint
10
59.000000610947616
20
-5.9999998360872269
30
0
0
POINT
5
128
100
AcDbEntity
8
0
100
AcDbPoint
10
43.000000610947609
20
-20.999999836087227
30
0
0
POINT
5
129
100
AcDbEntity
8
0
100
AcDbPoint
10
43.000000610947609
20
-22.99999983608723
30
0
0
POINT
5
130
100
AcDbEntity
8
0
100
AcDbPoint
10
59.000000610947616
20
-22.99999983608723
30
0
0
POINT
5
131
100
AcDbEntity
8
0
100
AcDbPoint
10
43.000000610947609
20
-37.999999836087227
30
0
0
POINT
5
132
100
AcDbEntity
8
0
100
AcDbPoint
10
43.000000610947609
20
-39.999999836087234
30
0
0
POINT
5
133
100
AcDbEntity
8
0
100
AcDbPoint
10
59.000000610947616
20
-39.999999836087234
30
0
0
POINT
5
134
100
AcDbEntity
8
0
100
AcDbPoint
10
43.000000610947609
20
-54.999999836087234
30
0
0
POINT
5
135
100
AcDbEntity
8
0
100
AcDbPoint
10
61.000000610947616
20
11.000000163912773
30
0
0
POINT
5
136
100
AcDbEntity
8
0
100
AcDbPoint
10
77.000000610947623
20
11.000000163912773
30
0
0
POINT
5
137
100
AcDbEntity
8
0
100
AcDbPoint
10
61.000000610947616
20
-3.9999998360872269
30
0
0
POINT
5
138
100
AcDbEntity
8
0
100
AcDbPoint
10
61.000000610947616
20
-5.9999998360872269
30
0
0
POINT
5
139
100
AcDbEntity
8
0
100
AcDbPoint
10
77.000000610947623
20
-5.9999998360872269
30
0
0
POINT
5
140
100
AcDbEntity
8
0
100
AcDbPoint
10
61.000000610947616
20
-20.999999836087227
30
0
0
POINT
5
141
100
AcDbEntity
8
0
100
AcDbPoint
10
61.000000610947616
20
-22.99999983608723
30
0
0
POINT
5
142
100
AcDbEntity
8
0
100
AcDbPoint
10
77.000000610947623
20
-22.99999983608723
30
0
0
POINT
5
143
100
AcDbEntity
8
0
100
AcDbPoint
10
61.000000610947616
20
-37.999999836087227
30
0
0
POINT
5
144
100
AcDbEntity
8
0
100
AcDbPoint
10
61.000000610947616
20
-39.999999836087234
30
0
0
POINT
5
145
100
AcDbEntity
8
0
100
AcDbPoint
10
77.000000610947623
20
-39.999999836087234
30
0
0
POINT
5
146
100
AcDbEntity
8
0
100
AcDbPoint
10
61.000000610947616
20
-54.999999836087234
30
0
0
POINT
5
147
100
AcDbEntity
8
0
100
AcDbPoint
10
79.000000610947623
20
11.000000163912773
30
0
0
POINT
5
148
100
AcDbEntity
8
0
100
AcDbPoint
10
95.000000610947637
20
11.000000163912773
30
0
0
POINT
5
149
100
AcDbEntity
8
0
100
AcDbPoint
10
79.000000610947623
20
-3.9999998360872269
30
0
0
POINT
5
150
100
AcDbEntity
8
0
100
AcDbPoint
10
79.000000610947623
20
-5.9999998360872269
30
0
0
POINT
5
151
100
AcDbEntity
8
0
100
AcDbPoint
10
95.000000610947637
20
-5.9999998360872269
30
0
0
POINT
5
152
100
AcDbEntity
8
0
100
AcDbPoint
10
79.000000610947623
20
-20.999999836087227
30
0
0
POINT
5
153
100
AcDbEntity
8
0
100
AcDbPoint
10
79.000000610947623
20
-22.99999983608723
30
0
0
POINT
5
154
100
AcDbEntity
8
0
100
AcDbPoint
10
95.000000610947637
20
-22.99999983608723
30
0
0
POINT
5
155
100
AcDbEntity
8
0
100
AcDbPoint
10
79.000000610947623
20
-37.999999836087227
30
0
0
POINT
5
156
100
AcDbEntity
8
0
100
AcDbPoint
10
79.000000610947623
20
-40
30
0
0
POINT
5
157
100
AcDbEntity
8
0
100
AcDbPoint
10
95.000000610947637
20
-40
30
0
0
POINT
5
158
100
AcDbEntity
8
0
100
AcDbPoint
10
79.000000610947623
20
-55
30
0
0
LWPOLYLINE
5
159
100
AcDbEntity
8
0
100
AcDbPolyline
90
8
70
1
43
0.0
10
8.0000001043081284
20
11.000000163912773
10
22.000000104308121
20
11.000000163912775
42
-0.4142135623730957
10
23.000000104308135
20
10.000000163912773
10
23.000000104308125
20
-2.999999836087226
42
-0.41421356237309309
10
22.000000104308128
20
-3.9999998360872269
10
8.0000001043081284
20
-3.9999998360872273
42
-0.41421356237309492
10
7.0000001043081284
20
-2.9999998360872269
10
7.0000001043081275
20
10.000000163912773
42
-0.41421356237309509
0
LWPOLYLINE
5
160
100
AcDbEntity
8
0
100
AcDbPolyline
90
8
70
1
43
0.0
10
25.00000037252903
20
10.000000163912773
10
25.00000037252903
20
-2.999999836087226
42
0.41421356237309243
10
26.00000037252903
20
-3.9999998360872269
10
40.000000610947609
20
-3.9999998360872269
42
0.4142135623730967
10
41.000000610947609
20
-2.9999998360872269
10
41.000000610947609
20
10.00000016391277
42
0.41421356237309692
10
40.000000610947609
20
11.000000163912773
10
26.000000372529026
20
11.000000163912771
42
0.41421356237309048
0
LWPOLYLINE
5
161
100
AcDbEntity
8
0
100
AcDbPolyline
90
8
70
1
43
0.0
10
44.000000610947609
20
11.000000163912773
10
58.000000610947623
20
11.000000163912777
42
-0.41421356237309692
10
59.000000610947616
20
10.000000163912775
10
59.000000610947616
20
-2.9999998360872282
42
-0.4142135623730967
10
58.000000610947623
20
-3.9999998360872269
10
44.000000610947609
20
-3.9999998360872291
42
-0.4142135623730967
10
43.000000610947609
20
-2.9999998360872269
10
43.000000610947609
20
10.00000016391277
42
-0.41421356237309692
0
LWPOLYLINE
5
162
100
AcDbEntity
8
0
100
AcDbPolyline
90
8
70
1
43
0.0
10
8.0000001043081284
20
-5.9999998360872269
10
22.000000104308125
20
-5.9999998360872269
42
-0.41421356237309598
10
23.000000104308128
20
-6.999999836087226
10
23.000000104308125
20
-19.999999836087227
42
-0.41421356237309048
10
22.000000104308128
20
-20.999999836087227
10
8.0000001043081284
20
-20.999999836087227
42
-0.41421356237309243
10
7.0000001043081284
20
-19.999999836087227
10
7.0000001043081284
20
-6.9999998360872269
42
-0.41421356237309537
0
LWPOLYLINE
5
163
100
AcDbEntity
8
0
100
AcDbPolyline
90
8
70
1
43
0.0
10
8.0000001043081284
20
-22.99999983608723
10
22.000000104308125
20
-22.99999983608723
42
-0.4142135623730937
10
23.000000104308128
20
-23.99999983608723
10
23.000000104308125
20
-36.999999836087227
42
-0.41421356237309109
10
22.000000104308128
20
-37.999999836087227
10
8.0000001043081284
20
-37.999999836087227
42
-0.41421356237309243
10
7.0000001043081284
20
-36.999999836087227
10
7.0000001043081284
20
-23.999999836087234
42
-0.41421356237309337
0
LWPOLYLINE
5
164
100
AcDbEntity
8
0
100
AcDbPolyline
90
8
70
1
43
0.0
10
8.0000001043081284
20
-39.999999836087234
10
22.000000104308125
20
-39.999999836087234
42
-0.41421356237309637
10
23.000000104308135
20
-40.99999983608722
10
23.000000104308128
20
-53.999999836087227
42
-0.41421356237309637
10
22.000000104308128
20
-54.999999836087234
10
8.0000001043081284
20
-54.999999836087234
42
-0.41421356237309692
10
7.0000001043081284
20
-53.999999836087234
10
7.0000001043081266
20
-40.999999836087227
42
-0.4142135623730967
0
LWPOLYLINE
5
165
100
AcDbEntity
8
0
100
AcDbPolyline
90
8
70
1
43
0.0
10
26.00000037252903
20
-5.9999998360872269
10
40.00000037252903
20
-5.9999998360872242
42
-0.4142135623730967
10
41.00000037252903
20
-6.999999836087226
10
41.00000037252903
20
-19.999999836087227
42
-0.41421356237310092
10
40.00000037252903
20
-20.999999836087227
10
26.000000372529037
20
-20.999999836087227
42
-0.41421356237309437
10
25.00000037252903
20
-19.99999983608723
10
25.00000037252903
20
-6.9999998360872269
42
-0.41421356237309243
0
LWPOLYLINE
5
166
100
AcDbEntity
8
0
100
AcDbPolyline
90
8
70
1
43
0.0
10
26.00000037252903
20
-22.999999836087234
10
40.00000037252903
20
-22.999999836087234
42
-0.4142135623731002
10
41.00000037252903
20
-23.99999983608723
10
41.00000037252903
20
-36.999999836087227
42
-0.4142135623731002
10
40.00000037252903
20
-37.999999836087227
10
26.000000372529037
20
-37.999999836087227
42
-0.41421356237308982
10
25.000000372529033
20
-36.999999836087227
10
25.00000037252903
20
-23.999999836087234
42
-0.41421356237308982
0
LWPOLYLINE
5
167
100
AcDbEntity
8
0
100
AcDbPolyline
90
8
70
1
43
0.0
10
26.00000037252903
20
-39.999999836087227
10
40.00000037252903
20
-39.999999836087234
42
-0.41421356237309509
10
41.00000037252903
20
-40.999999836087227
10
41.00000037252903
20
-53.999999836087234
42
-0.41421356237309509
10
40.00000037252903
20
-54.999999836087234
10
26.00000037252903
20
-54.999999836087241
42
-0.4142135623731002
10
25.00000037252903
20
-53.999999836087234
10
25.00000037252903
20
-40.999999836087227
42
-0.4142135623731002
0
LWPOLYLINE
5
168
100
AcDbEntity
8
0
100
AcDbPolyline
90
8
70
1
43
0.0
10
44.000000610947609
20
-5.9999998360872242
10
58.000000610947623
20
-5.9999998360872242
42
-0.4142135623730967
10
59.000000610947616
20
-6.999999836087226
10
59.000000610947616
20
-19.999999836087227
42
-0.41421356237310092
10
58.000000610947623
20
-20.999999836087227
10
44.000000610947609
20
-20.999999836087227
42
-0.41421356237310092
10
43.000000610947609
20
-19.999999836087227
10
43.000000610947609
20
-6.9999998360872269
42
-0.41421356237309692
0
LWPOLYLINE
5
169
100
AcDbEntity
8
0
100
AcDbPolyline
90
8
70
1
43
0.0
10
44.000000610947595
20
-22.999999836087227
10
58.000000610947623
20
-22.999999836087234
42
-0.4142135623731002
10
59.000000610947616
20
-23.99999983608723
10
59.000000610947616
20
-36.999999836087227
42
-0.4142135623731002
10
58.000000610947623
20
-37.999999836087227
10
44.000000610947609
20
-37.999999836087227
42
-0.4142135623731002
10
43.000000610947609
20
-36.999999836087227
10
43.000000610947609
20
-23.999999836087234
42
-0.41421356237309637
0
LWPOLYLINE
5
170
100
AcDbEntity
8
0
100
AcDbPolyline
90
8
70
1
43
0.0
10
44.000000610947609
20
-39.999999836087234
10
58.000000610947623
20
-39.999999836087234
42
-0.41421356237309509
10
59.000000610947616
20
-40.999999836087227
10
59.000000610947616
20
-53.999999836087234
42
-0.41421356237309509
10
58.000000610947623
20
-54.999999836087234
10
44.000000610947609
20
-54.999999836087234
42
-0.41421356237309509
10
43.000000610947609
20
-53.999999836087234
10
43.000000610947609
20
-40.999999836087227
42
-0.41421356237309509
0
LWPOLYLINE
5
171
100
AcDbEntity
8
0
100
AcDbPolyline
90
8
70
1
43
0.0
10
62.000000610947616
20
11.000000163912773
10
76.000000610947623
20
11.000000163912771
42
-0.4142135623730957
10
77.000000610947623
20
10.000000163912773
10
77.000000610947623
20
-2.999999836087226
42
-0.41421356237309731
10
76.000000610947623
20
-3.9999998360872269
10
62.000000610947616
20
-3.9999998360872291
42
-0.4142135623730967
10
61.000000610947616
20
-2.9999998360872269
10
61.000000610947616
20
10.00000016391277
42
-0.41421356237309692
0
LWPOLYLINE
5
172
100
AcDbEntity
8
0
100
AcDbPolyline
90
8
70
1
43
0.0
10
62.000000610947616
20
-5.9999998360872242
10
76.000000610947623
20
-5.9999998360872242
42
-0.4142135623730967
10
77.000000610947623
20
-6.999999836087226
10
77.000000610947623
20
-19.999999836087227
42
-0.41421356237310092
10
76.000000610947623
20
-20.999999836087227
10
62.000000610947616
20
-20.999999836087227
42
-0.41421356237310092
10
61.000000610947616
20
-19.999999836087227
10
61.000000610947616
20
-6.9999998360872269
42
-0.41421356237309692
0
LWPOLYLINE
5
173
100
AcDbEntity
8
0
100
AcDbPolyline
90
8
70
1
43
0.0
10
62.000000610947609
20
-22.999999836087227
10
76.000000610947623
20
-22.999999836087234
42
-0.4142135623731002
10
77.000000610947623
20
-23.99999983608723
10
77.000000610947623
20
-36.999999836087227
42
-0.4142135623731002
10
76.000000610947623
20
-37.999999836087227
10
62.000000610947616
20
-37.999999836087234
42
-0.4142135623731002
10
61.000000610947609
20
-36.999999836087227
10
61.000000610947616
20
-23.999999836087234
42
-0.41421356237309637
0
LWPOLYLINE
5
174
100
AcDbEntity
8
0
100
AcDbPolyline
90
8
70
1
43
0.0
10
62.000000610947616
20
-39.999999836087234
10
76.000000610947623
20
-39.999999836087234
42
-0.41421356237309509
10
77.000000610947623
20
-40.999999836087227
10
77.000000610947623
20
-53.999999836087234
42
-0.41421356237309509
10
76.000000610947623
20
-54.999999836087234
10
62.000000610947616
20
-54.999999836087234
42
-0.41421356237309509
10
61.000000610947616
20
-53.999999836087234
10
61.000000610947616
20
-40.999999836087227
42
-0.41421356237309509
0
LWPOLYLINE
5
175
100
AcDbEntity
8
0
100
AcDbPolyline
90
8
70
1
43
0.0
10
80.000000610947637
20
11.00000016391278
10
94.000000610947637
20
11.000000163912773
42
-0.4142135623730957
10
95.000000610947637
20
10.000000163912775
10
95.000000610947637
20
-2.9999998360872282
42
-0.41421356237309537
10
94.000000610947637
20
-3.9999998360872269
10
80.000000610947637
20
-3.9999998360872246
42
-0.41421356237308493
10
79.000000610947637
20
-2.9999998360872269
10
79.000000610947623
20
10.00000016391277
42
-0.41421356237308593
0
LWPOLYLINE
5
176
100
AcDbEntity
8
0
100
AcDbPolyline
90
8
70
1
43
0.0
10
80.000000610947637
20
-5.9999998360872215
10
94.000000610947637
20
-5.9999998360872286
42
-0.41421356237309537
10
95.000000610947637
20
-6.999999836087226
10
95.000000610947637
20
-19.999999836087227
42
-0.41421356237309692
10
94.000000610947637
20
-20.999999836087227
10
80.000000610947637
20
-20.999999836087234
42
-0.41421356237308465
10
79.000000610947623
20
-19.999999836087227
10
79.000000610947623
20
-6.9999998360872322
42
-0.41421356237308593
0
LWPOLYLINE
5
177
100
AcDbEntity
8
0
100
AcDbPolyline
90
8
70
1
43
0.0
10
80.000000610947637
20
-22.999999836087227
10
94.000000610947637
20
-22.99999983608723
42
-0.41421356237309637
10
95.000000610947637
20
-23.99999983608723
10
95.000000610947637
20
-36.999999836087227
42
-0.41421356237309637
10
94.000000610947637
20
-37.999999836087227
10
80.000000610947637
20
-37.999999836087227
42
-0.41421356237308465
10
79.000000610947637
20
-36.999999836087227
10
79.000000610947623
20
-23.999999836087234
42
-0.41421356237308593
0
LWPOLYLINE
5
178
100
AcDbEntity
8
0
100
AcDbPolyline
90
8
70
1
43
0.0
10
80.000000610947637
20
-40
10
94.000000610947637
20
-40
42
-0.41421356237309509
10
95.000000610947637
20
-41
10
95.000000610947637
20
-54
42
-0.41421356237309509
10
94.000000610947637
20
-55
10
80.000000610947637
20
-55
42
-0.41421356237308982
10
79.000000610947609
20
-54
10
79.000000610947623
20
-41.000000000000007
42
-0.41421356237308465
0
LWPOLYLINE
5
179
100
AcDbEntity
8
0
100
AcDbPolyline
90
8
70
1
43
0.0
10
6.8000001043081282
20
-2.9999998360872269
42
0.41421356237309492
10
8.0000001043081284
20
-4.1999998360872279
10
22.000000104308128
20
-4.199999836087227
42
0.41421356237309331
10
23.200000104308131
20
-2.999999836087226
10
23.200000104308135
20
10.000000163912773
42
0.41421356237309448
10
22.000000104308128
20
11.200000163912776
10
8.0000001043081284
20
11.200000163912772
42
0.41421356237309509
10
6.8000001043081273
20
10.000000163912773
0
LWPOLYLINE
5
180
100
AcDbEntity
8
0
100
AcDbPolyline
90
8
70
1
43
0.0
10
41.200000610947605
20
-2.999999836087226
10
41.200000610947605
20
10.000000163912773
42
0.41421356237309614
10
40.000000610947609
20
11.200000163912772
10
26.000000372529026
20
11.200000163912771
42
0.41421356237309126
10
24.800000372529031
20
10.000000163912773
10
24.800000372529031
20
-2.999999836087226
42
0.41421356237309293
10
26.00000037252903
20
-4.199999836087227
10
40.000000610947609
20
-4.199999836087227
42
0.4142135623730967
0
LWPOLYLINE
5
181
100
AcDbEntity
8
0
100
AcDbPolyline
90
8
70
1
43
0.0
10
42.800000610947606
20
-2.9999998360872269
42
0.41421356237309642
10
44.000000610947609
20
-4.1999998360872297
10
58.000000610947623
20
-4.199999836087227
42
0.4142135623730967
10
59.200000610947612
20
-2.9999998360872282
10
59.200000610947612
20
10.000000163912775
42
0.4142135623730967
10
58.000000610947623
20
11.200000163912778
10
44.000000610947609
20
11.200000163912772
42
0.41421356237309714
10
42.800000610947606
20
10.000000163912768
0
LWPOLYLINE
5
182
100
AcDbEntity
8
0
100
AcDbPolyline
90
8
70
1
43
0.0
10
77.200000610947626
20
10.000000163912773
42
0.41421356237309553
10
76.000000610947623
20
11.200000163912771
10
62.000000610947616
20
11.200000163912772
42
0.41421356237309714
10
60.800000610947613
20
10.000000163912768
10
60.80000061094762
20
-2.9999998360872269
42
0.41421356237309642
10
62.000000610947616
20
-4.1999998360872297
10
76.000000610947623
20
-4.199999836087227
42
0.41421356237309731
10
77.200000610947626
20
-2.9999998360872238
0
LWPOLYLINE
5
183
100
AcDbEntity
8
0
100
AcDbPolyline
90
8
70
1
43
0.0
10
80.000000610947637
20
11.20000016391278
42
0.41421356237308693
10
78.80000061094762
20
10.000000163912773
10
78.800000610947635
20
-2.9999998360872269
42
0.4142135623730866
10
80.000000610947637
20
-4.1999998360872244
10
94.000000610947637
20
-4.199999836087227
42
0.41421356237309531
10
95.200000610947626
20
-2.9999998360872282
10
95.200000610947626
20
10.000000163912775
42
0.41421356237309553
10
94.000000610947637
20
11.200000163912772
0
LWPOLYLINE
5
184
100
AcDbEntity
8
0
100
AcDbPolyline
90
8
70
1
43
0.0
10
80.000000610947637
20
-5.7999998360872222
42
0.4142135623730866
10
78.80000061094762
20
-6.9999998360872295
10
78.800000610947635
20
-19.999999836087227
42
0.41421356237308637
10
80.000000610947637
20
-21.199999836087233
10
94.000000610947637
20
-21.19999983608723
42
0.41421356237309714
10
95.200000610947626
20
-19.999999836087223
10
95.200000610947626
20
-6.999999836087226
42
0.41421356237309531
10
94.000000610947637
20
-5.7999998360872285
0
LWPOLYLINE
5
185
100
AcDbEntity
8
0
100
AcDbPolyline
90
8
70
1
43
0.0
10
62.000000610947616
20
-5.799999836087224
42
0.41421356237309687
10
60.800000610947613
20
-6.9999998360872295
10
60.80000061094762
20
-19.999999836087227
42
0.41421356237309992
10
62.000000610947616
20
-21.199999836087223
10
76.000000610947623
20
-21.19999983608723
42
0.41421356237310042
10
77.200000610947626
20
-19.999999836087223
10
77.200000610947626
20
-6.999999836087226
42
0.41421356237309642
10
76.000000610947623
20
-5.799999836087224
0
LWPOLYLINE
5
186
100
AcDbEntity
8
0
100
AcDbPolyline
90
8
70
1
43
0.0
10
58.000000610947623
20
-21.19999983608723
42
0.41421356237310042
10
59.200000610947619
20
-19.999999836087223
10
59.200000610947612
20
-6.999999836087226
42
0.41421356237309642
10
58.000000610947623
20
-5.799999836087224
10
44.000000610947609
20
-5.799999836087224
42
0.41421356237309687
10
42.800000610947606
20
-6.9999998360872295
10
42.800000610947613
20
-19.999999836087227
42
0.41421356237309992
10
44.000000610947609
20
-21.199999836087223
0
LWPOLYLINE
5
187
100
AcDbEntity
8
0
100
AcDbPolyline
90
8
70
1
43
0.0
10
40.00000037252903
20
-21.19999983608723
42
0.41421356237310042
10
41.200000372529033
20
-19.999999836087223
10
41.200000372529018
20
-6.999999836087226
42
0.41421356237309642
10
40.00000037252903
20
-5.799999836087224
10
26.00000037252903
20
-5.7999998360872258
42
0.41421356237309259
10
24.800000372529031
20
-6.9999998360872269
10
24.800000372529031
20
-19.99999983608723
42
0.41421356237309337
10
26.000000372529026
20
-21.19999983608723
0
LWPOLYLINE
5
188
100
AcDbEntity
8
0
100
AcDbPolyline
90
8
70
1
43
0.0
10
22.000000104308128
20
-21.19999983608723
42
0.41421356237309126
10
23.200000104308131
20
-19.999999836087227
10
23.200000104308131
20
-6.999999836087226
42
0.41421356237309581
10
22.000000104308125
20
-5.7999998360872258
10
8.0000001043081284
20
-5.7999998360872258
42
0.41421356237309531
10
6.8000001043081282
20
-6.9999998360872269
10
6.8000001043081282
20
-19.999999836087227
42
0.41421356237309259
10
8.0000001043081284
20
-21.19999983608723
0
LWPOLYLINE
5
189
100
AcDbEntity
8
0
100
AcDbPolyline
90
8
70
1
43
0.0
10
22.000000104308128
20
-38.19999983608723
42
0.4142135623730907
10
23.200000104308124
20
-36.999999836087234
10
23.200000104308131
20
-23.99999983608723
42
0.41421356237309398
10
22.000000104308125
20
-22.799999836087231
10
8.0000001043081284
20
-22.799999836087231
42
0.41421356237309259
10
6.8000001043081282
20
-23.99999983608723
10
6.8000001043081282
20
-36.999999836087227
42
0.41421356237309259
10
8.0000001043081284
20
-38.19999983608723
0
LWPOLYLINE
5
190
100
AcDbEntity
8
0
100
AcDbPolyline
90
8
70
1
43
0.0
10
40.00000037252903
20
-38.19999983608723
42
0.41421356237310042
10
41.200000372529033
20
-36.999999836087227
10
41.200000372529018
20
-23.99999983608723
42
0.41421356237309936
10
40.00000037252903
20
-22.799999836087235
10
26.00000037252903
20
-22.799999836087235
42
0.41421356237308965
10
24.800000372529031
20
-23.99999983608723
10
24.800000372529034
20
-36.999999836087227
42
0.41421356237308965
10
26.00000037252903
20
-38.19999983608723
0
LWPOLYLINE
5
191
100
AcDbEntity
8
0
100
AcDbPolyline
90
8
70
1
43
0.0
10
58.000000610947623
20
-38.19999983608723
42
0.41421356237310042
10
59.200000610947612
20
-36.999999836087227
10
59.200000610947612
20
-23.99999983608723
42
0.41421356237309936
10
58.000000610947623
20
-22.799999836087235
10
44.000000610947595
20
-22.799999836087224
42
0.41421356237309614
10
42.800000610947606
20
-23.999999836087234
10
42.800000610947613
20
-36.999999836087227
42
0.41421356237309936
10
44.000000610947609
20
-38.19999983608723
0
LWPOLYLINE
5
192
100
AcDbEntity
8
0
100
AcDbPolyline
90
8
70
1
43
0.0
10
76.000000610947623
20
-38.19999983608723
42
0.41421356237310042
10
77.200000610947626
20
-36.999999836087227
10
77.200000610947626
20
-23.99999983608723
42
0.41421356237309936
10
76.000000610947623
20
-22.799999836087235
10
62.000000610947609
20
-22.799999836087224
42
0.41421356237309614
10
60.800000610947613
20
-23.999999836087234
10
60.800000610947613
20
-36.999999836087227
42
0.41421356237309936
10
62.000000610947616
20
-38.199999836087237
0
LWPOLYLINE
5
193
100
AcDbEntity
8
0
100
AcDbPolyline
90
8
70
1
43
0.0
10
94.000000610947637
20
-38.19999983608723
42
0.41421356237309614
10
95.200000610947626
20
-36.999999836087227
10
95.200000610947626
20
-23.99999983608723
42
0.41421356237309614
10
94.000000610947637
20
-22.799999836087231
10
80.000000610947637
20
-22.799999836087224
42
0.41421356237308737
10
78.80000061094762
20
-23.999999836087234
10
78.800000610947635
20
-36.999999836087227
42
0.41421356237308637
10
80.000000610947637
20
-38.19999983608723
0
LWPOLYLINE
5
194
100
AcDbEntity
8
0
100
AcDbPolyline
90
8
70
1
43
0.0
10
94.000000610947637
20
-55.199999999999996
42
0.41421356237309509
10
95.200000610947626
20
-54
10
95.200000610947626
20
-41
42
0.41421356237309509
10
94.000000610947637
20
-39.799999999999997
10
80.000000610947637
20
-39.799999999999997
42
0.41421356237308415
10
78.80000061094762
20
-41
10
78.80000061094762
20
-54
42
0.4142135623730907
10
80.000000610947637
20
-55.199999999999996
0
LWPOLYLINE
5
195
100
AcDbEntity
8
0
100
AcDbPolyline
90
8
70
1
43
0.0
10
76.000000610947623
20
-55.199999836087237
42
0.41421356237309509
10
77.200000610947626
20
-53.999999836087234
10
77.200000610947626
20
-40.999999836087227
42
0.41421356237309509
10
76.000000610947623
20
-39.799999836087231
10
62.000000610947616
20
-39.799999836087231
42
0.41421356237309509
10
60.800000610947613
20
-40.999999836087227
10
60.80000061094762
20
-53.999999836087234
42
0.41421356237309509
10
62.000000610947616
20
-55.199999836087237
0
LWPOLYLINE
5
196
100
AcDbEntity
8
0
100
AcDbPolyline
90
8
70
1
43
0.0
10
58.000000610947623
20
-55.199999836087237
42
0.41421356237309509
10
59.200000610947612
20
-53.999999836087234
10
59.200000610947612
20
-40.999999836087227
42
0.41421356237309509
10
58.000000610947623
20
-39.799999836087231
10
44.000000610947609
20
-39.799999836087231
42
0.41421356237309509
10
42.800000610947606
20
-40.999999836087227
10
42.800000610947613
20
-53.999999836087234
42
0.41421356237309509
10
44.000000610947609
20
-55.199999836087237
0
LWPOLYLINE
5
197
100
AcDbEntity
8
0
100
AcDbPolyline
90
8
70
1
43
0.0
10
40.00000037252903
20
-55.199999836087237
42
0.41421356237309509
10
41.200000372529018
20
-53.999999836087234
10
41.200000372529018
20
-40.999999836087227
42
0.41421356237309509
10
40.00000037252903
20
-39.799999836087231
10
26.00000037252903
20
-39.799999836087224
42
0.41421356237309936
10
24.800000372529031
20
-40.999999836087227
10
24.800000372529031
20
-53.999999836087234
42
0.41421356237310042
10
26.000000372529037
20
-55.199999836087237
0
LWPOLYLINE
5
198
100
AcDbEntity
8
0
100
AcDbPolyline
90
8
70
1
43
0.0
10
22.000000104308128
20
-55.199999836087237
42
0.41421356237309176
10
23.200000104308131
20
-53.999999836087255
10
23.200000104308135
20
-40.99999983608722
42
0.41421356237309614
10
22.000000104308125
20
-39.799999836087231
10
8.0000001043081284
20
-39.799999836087231
42
0.41421356237309642
10
6.8000001043081255
20
-40.999999836087227
10
6.8000001043081282
20
-53.999999836087234
42
0.41421356237309687
10
8.0000001043081284
20
-55.19999983608723
0
LWPOLYLINE
5
199
100
AcDbEntity
8
0
100
AcDbPolyline
90
16
70
1
43
0.0
10
2.8000001043081268
20
10.000000163912773
10
2.8000001043081282
20
-53.999999836087234
10
2.8000001043081282
20
-57.19999983608723
42
0.41421356237309281
10
4.8000001043081273
20
-59.199999836087223
10
8.0000001043081284
20
-59.19999983608723
10
94.000000610947637
20
-59.200000000000003
10
97.200000604848555
20
-59.200000000000003
42
0.4142135618148523
10
99.20000060484854
20
-57.200000003811923
10
99.200000610947626
20
-54
10
99.200000610947626
20
10.000000163912775
10
99.200000610947626
20
13.200000163912772
42
0.4142135623730967
10
97.20000061094764
20
15.200000163912772
10
94.000000610947637
20
15.200000163912772
10
8.0000001043081266
20
15.200000163912772
10
4.8000001043081264
20
15.200000163912774
42
0.41421356237309542
10
2.8000001043081268
20
13.200000163912772
0
LWPOLYLINE
5
200
100
AcDbEntity
8
0
100
AcDbPolyline
90
16
70
1
43
0.0
10
97.20000061094764
20
12.200000163912781
10
97.20000061094764
20
10.000000163912777
10
97.20000061094764
20
-54
10
97.200000606754529
20
-56.20000000190597
42
-0.41421356181486013
10
96.200000606754514
20
-57.200000000000003
10
94.000000610947652
20
-57.199999999999996
10
8.0000001081200534
20
-57.19999983608723
10
5.8000001043081291
20
-57.199999836087223
42
-0.41421356237309598
10
4.8000001043081317
20
-56.199999836087223
10
4.8000001043081282
20
-53.999999836087227
10
4.8000001043081273
20
10.000000163912773
10
4.8000001043081264
20
12.200000163912774
42
-0.41421356237309509
10
5.8000001043081273
20
13.200000163912776
10
8.0000001043081266
20
13.200000163912772
10
94.000000610947637
20
13.200000163912772
10
96.20000061094764
20
13.200000163912776
42
-0.4142135623731048
0
LWPOLYLINE
5
201
100
AcDbEntity
8
0
100
AcDbPolyline
90
24
70
1
43
0.0
10
95.700000610947626
20
10.700000163912772
10
95.700000610947626
20
10.500000163912775
10
95.700000610947626
20
10.000000163912777
10
95.700000610947626
20
-54
10
95.700000609994618
20
-54.499999999047013
10
95.700000609613454
20
-54.700000001905977
42
-0.4142135618148523
10
94.700000609613454
20
-55.700000000000003
10
94.500000610947623
20
-55.700000000000003
10
94.000000610947637
20
-55.700000000000003
10
8.0000001109789967
20
-55.699999836087237
10
7.5000001100260159
20
-55.699999836087237
10
7.300000104308122
20
-55.699999836087237
42
-0.41421356237308693
10
6.3000001043081273
20
-54.69999983608723
10
6.3000001043081273
20
-54.499999836087234
10
6.3000001043081273
20
-53.999999836087227
10
6.3000001043081273
20
10.000000163912773
10
6.3000001043081264
20
10.50000016391277
10
6.3000001043081273
20
10.700000163912771
42
-0.4142135623730947
10
7.3000001043081273
20
11.700000163912772
10
7.5000001043081248
20
11.700000163912772
10
8.0000001043081248
20
11.700000163912772
10
94.000000610947637
20
11.700000163912772
10
94.500000610947637
20
11.700000163912772
10
94.70000061094764
20
11.700000163912772
42
-0.4142135623730957
0
LWPOLYLINE
5
202
100
AcDbEntity
8
0
100
AcDbPolyline
90
24
70
1
43
0.0
10
97.200000604848555
20
-58.200000000000003
10
94.000000610947637
20
-58.200000000000003
10
93.500000609994657
20
-58.199999999047016
10
8.50000010621409
20
-58.199999837040217
10
8.00000010621409
20
-58.199999836087237
10
4.8000001043081308
20
-58.19999983608723
42
-0.4142135623730917
10
3.8000001043081282
20
-57.19999983608723
10
3.8000001043081277
20
-53.999999836087234
10
3.8000001043081291
20
-53.499999836087241
10
3.8000001043081264
20
9.5000001639127714
10
3.8000001043081264
20
10.000000163912773
10
3.8000001043081273
20
13.200000163912772
42
-0.4142135623730957
10
4.8000001043081255
20
14.200000163912774
10
8.0000001043081266
20
14.200000163912772
10
8.5000001043081248
20
14.200000163912772
10
93.500000610947623
20
14.200000163912767
10
94.000000610947637
20
14.200000163912772
10
97.20000061094764
20
14.20000016391278
42
-0.41421356237309637
10
98.200000610947626
20
13.20000016391278
10
98.200000610947626
20
10.000000163912775
10
98.200000610947626
20
9.5000001639127696
10
98.200000610947626
20
-53.500000000000007
10
98.200000610947626
20
-54
10
98.200000604848555
20
-57.200000001905963
42
-0.4142135618148523
0
LWPOLYLINE
5
203
100
AcDbEntity
8
0
100
AcDbPolyline
90
19
70
1
43
0.0
10
97.200000604848555
20
-62.199999999999996
10
94.000000610947637
20
-62.199999999999996
10
8.0000000985902417
20
-62.19999983608723
10
4.8000001043081202
20
-62.199999836087223
10
-0.19999989569185528
20
-62.199999836087201
10
-0.19999989569187304
20
-57.199999836087237
10
-0.19999989569187249
20
-53.999999836087227
10
-0.1999998956918736
20
10.000000163912773
10
-0.1999998956918736
20
13.200000163912772
10
-0.19999989569187582
20
18.20000016391278
10
4.8000001043081273
20
18.200000163912776
10
8.0000001043081284
20
18.200000163912772
10
94.000000610947637
20
18.200000163912772
10
97.20000061094764
20
18.200000163912772
10
102.20000061094764
20
18.200000163912772
10
102.20000061094764
20
13.200000163912755
10
102.20000061094764
20
10.000000163912777
10
102.20000061094764
20
-54
10
102.20000060484853
20
-57.200000009529816
42
-0.41421356181485181
0
ARC
5
204
100
AcDbEntity
8
0
100
AcDbCircle
10
4.8000001043081335
20
-57.199999836087223
30
0
40
5.0000000000000071
210
0
220
0
230
1
100
AcDbArc
50
180
51
269.99999999999983
0
ARC
5
205
100
AcDbEntity
8
0
100
AcDbCircle
10
4.8000001043081255
20
13.200000163912776
30
0
40
5
210
0
220
-0
230
1
100
AcDbArc
50
89.999999999999972
51
180
0
ARC
5
206
100
AcDbEntity
8
0
100
AcDbCircle
10
97.20000061094764
20
13.200000163912783
30
0
40
5
210
0
220
0
230
1
100
AcDbArc
50
0
51
90
0
LINE
5
207
100
AcDbEntity
8
0
100
AcDbLine
10
102.20000060484855
20
-57.200000009529816
30
0
11
102.20000059531873
21
-62.199999999999996
31
0
0
LINE
5
208
100
AcDbEntity
8
0
100
AcDbLine
10
102.20000059531873
20
-62.199999999999996
30
0
11
97.200000604848555
21
-62.199999999999996
31
0
0
LINE
5
209
100
AcDbEntity
8
0
100
AcDbLine
10
8.000000104308123
20
12.200000163912769
30
0
11
8.0000001043081266
21
13.700000163912771
31
0
0
LINE
5
210
100
AcDbEntity
8
0
100
AcDbLine
10
5.8000001043081273
20
10.000000163912773
30
0
11
4.3000001043081264
21
10.000000163912773
31
0
0
LINE
5
211
100
AcDbEntity
8
0
100
AcDbLine
10
94.000000610947637
20
12.200000163912772
30
0
11
94.000000610947637
21
13.700000163912771
31
0
0
LINE
5
212
100
AcDbEntity
8
0
100
AcDbLine
10
96.20000061094764
20
10.000000163912777
30
0
11
97.700000610947626
21
10.000000163912775
31
0
0
LINE
5
213
100
AcDbEntity
8
0
100
AcDbLine
10
5.8000001043081273
20
-53.999999836087234
30
0
11
4.3000001043081282
21
-53.999999836087234
31
0
0
LINE
5
214
100
AcDbEntity
8
0
100
AcDbLine
10
8.0000001100260079
20
-56.19999983704021
30
0
11
8.0000001071670717
21
-57.699999836087244
31
0
0
LINE
5
215
100
AcDbEntity
8
0
100
AcDbLine
10
94.000000610947637
20
-56.200000000000003
30
0
11
94.000000610947637
21
-57.699999999047016
31
0
0
LINE
5
216
100
AcDbEntity
8
0
100
AcDbLine
10
96.200000609994618
20
-54
30
0
11
97.700000610947626
21
-54
31
0
0
ARC
5
217
100
AcDbEntity
8
0
100
AcDbCircle
10
5.8000001043081237
20
10.500000163912775
30
0
40
0.50000000000000266
210
0
220
0
230
1
100
AcDbArc
50
270.0000000000004
51
360
0
ARC
5
218
100
AcDbEntity
8
0
100
AcDbCircle
10
7.5000001043081213
20
12.200000163912774
30
0
40
0.50000000000000266
210
0
220
0
230
1
100
AcDbArc
50
270.0000000000004
51
360
0
ARC
5
219
100
AcDbEntity
8
0
100
AcDbCircle
10
8.500000104308123
20
13.700000163912776
30
0
40
0.499999999999996
210
0
220
-0
230
1
100
AcDbArc
50
89.999999999999801
51
180
0
ARC
5
220
100
AcDbEntity
8
0
100
AcDbCircle
10
94.500000610947666
20
12.200000163912801
30
0
40
0.50000000000002487
210
0
220
0
230
1
100
AcDbArc
50
180
51
269.99999999999676
0
ARC
5
221
100
AcDbEntity
8
0
100
AcDbCircle
10
93.500000610947609
20
13.700000163912742
30
0
40
0.50000000000002487
210
0
220
-0
230
1
100
AcDbArc
50
0
51
89.99999999999838
0
ARC
5
222
100
AcDbEntity
8
0
100
AcDbCircle
10
96.20000061094764
20
10.500000163912784
30
0
40
0.50000000000000711
210
0
220
0
230
1
100
AcDbArc
50
180
51
270
0
ARC
5
223
100
AcDbEntity
8
0
100
AcDbCircle
10
97.700000610947626
20
9.5000001639127678
30
0
40
0.50000000000000711
210
0
220
-0
230
1
100
AcDbArc
50
0
51
90
0
ARC
5
224
100
AcDbEntity
8
0
100
AcDbCircle
10
5.8000001043081308
20
-54.499999836087234
30
0
40
0.49999999999999711
210
0
220
0
230
1
100
AcDbArc
50
0
51
90.000000000000398
0
ARC
5
225
100
AcDbEntity
8
0
100
AcDbCircle
10
4.3000001043081184
20
-53.499999836087248
30
0
40
0.49999999999998934
210
0
220
-0
230
1
100
AcDbArc
50
180
51
270.00000000000114
0
ARC
5
226
100
AcDbEntity
8
0
100
AcDbCircle
10
7.5000001100260194
20
-56.199999836087223
30
0
40
0.49999999999998934
210
-0
220
0
230
1
100
AcDbArc
50
0
51
90.000000000000398
0
ARC
5
227
100
AcDbEntity
8
0
100
AcDbCircle
10
8.5000001071670521
20
-57.699999837040238
30
0
40
0.49999999999998046
210
0
220
0
230
1
100
AcDbArc
50
180
51
269.99999989079862
0
ARC
5
228
100
AcDbEntity
8
0
100
AcDbCircle
10
94.500000610947666
20
-56.200000000000031
30
0
40
0.50000000000002487
210
0
220
-0
230
1
100
AcDbArc
50
90.000000000004889
51
180
0
ARC
5
229
100
AcDbEntity
8
0
100
AcDbCircle
10
93.500000610947623
20
-57.699999999047009
30
0
40
0.50000000000000711
210
0
220
0
230
1
100
AcDbArc
50
269.99999989079816
51
360
0
ARC
5
230
100
AcDbEntity
8
0
100
AcDbCircle
10
96.200000609994603
20
-54.499999999999986
30
0
40
0.49999999999998046
210
0
220
-0
230
1
100
AcDbArc
50
89.99999999999838
51
180
0
ARC
5
231
100
AcDbEntity
8
0
100
AcDbCircle
10
97.700000610947626
20
-53.5
30
0
40
0.50000000000000711
210
0
220
0
230
1
100
AcDbArc
50
270
51
360
0
ARC
5
232
100
AcDbEntity
8
0
100
AcDbCircle
10
4.3000001043081273
20
9.5000001639127714
30
0
40
0.50000000000000044
210
0
220
0
230
1
100
AcDbArc
50
90.000000000000099
51
180
0
LINE
5
233
100
AcDbEntity
8
0
100
AcDbLine
10
6.3000001043081273
20
-21.99999983608723
30
0
11
95.700000610947626
21
-21.999999918043613
31
0
0
ENDSEC
0
SECTION
2
OBJECTS
0
DICTIONARY
5
C
100
AcDbDictionary
3
ACAD_GROUP
350
D
3
ACAD_MLINESTYLE
350
17
0
DICTIONARY
5
D
100
AcDbDictionary
0
DICTIONARY
5
1A
330
C
100
AcDbDictionary
0
DICTIONARY
5
17
100
AcDbDictionary
0
ENDSEC
0
EOF
